<svg width="33" height="39" viewBox="0 0 33 39" fill="none" xmlns="http://www.w3.org/2000/svg">
<path d="M3.38108 25.5779C3.38108 25.5779 2.82538 20.6035 8.40129 17.5689C12.6006 15.2851 24.3712 9.24077 29.9408 6.38757C31.6016 5.53662 32.2583 3.52812 31.4248 1.87001C30.566 0.174353 28.4695 -0.495148 26.7771 0.393349L3.72839 12.4569C3.72839 12.4569 -4.42392 16.7367 3.38108 25.5779Z" fill="#FF8563"/>
<path d="M30.7934 18.3572C30.6418 18.4761 30.4776 18.5825 30.3008 18.6763L17.564 25.3839L17.5261 25.3588C16.983 25.0147 11.2177 21.2355 15.6254 18.7952L27.0171 12.6258C27.1624 12.5445 27.3139 12.4756 27.4655 12.4256C29.0694 11.8249 30.9133 12.4881 31.7406 14.0336C32.5488 15.5291 32.1131 17.3624 30.7934 18.3572Z" fill="#005ABC"/>
<path d="M31.8856 37.2157C31.2479 38.3607 30.0544 39.0052 28.823 39.0052C28.2547 39.0052 27.68 38.8675 27.1496 38.5797L10.6618 29.6697C7.39713 27.9052 7.39081 23.2563 10.6618 21.4918L15.6252 18.8013C11.2175 21.2415 16.9829 25.0207 17.5259 25.3649L17.5638 25.3899L30.5217 32.5104C32.2077 33.4364 32.8202 35.5451 31.8856 37.2219V37.2157Z" fill="#2B89EF"/>
</svg>
